<svg fill="#6333FF" height="200px" width="200px" version="1.1" id="Capa_1" xmlns="http://www.w3.org/2000/svg" xmlns:xlink="http://www.w3.org/1999/xlink" viewBox="0 0 320 320" xml:space="preserve"><g id="SVGRepo_bgCarrier" stroke-width="0"></g><g id="SVGRepo_tracerCarrier" stroke-linecap="round" stroke-linejoin="round"></g><g id="SVGRepo_iconCarrier"> <g> <path d="M292.697,19.995H27.303C12.223,19.995,0,32.219,0,47.299v163.822c0,15.079,12.223,27.304,27.303,27.304H133.79v24.7 h-21.544c-10.185,0-18.439,8.255-18.439,18.44c0,10.184,8.255,18.44,18.439,18.44h95.508c10.186,0,18.44-8.256,18.44-18.44 c0-10.185-8.254-18.44-18.44-18.44H186.21v-24.7h106.487c15.08,0,27.303-12.225,27.303-27.304V47.299 C320,32.219,307.777,19.995,292.697,19.995z M32.181,179.96c0-14.4,11.715-26.116,26.115-26.116 c14.401,0,26.115,11.716,26.115,26.116c0,14.4-11.713,26.116-26.115,26.116C43.896,206.076,32.181,194.36,32.181,179.96z M288.328,206.752H127.579c0.734-1.874,0.25-4.04-1.292-5.409l-10.479-9.308c0.817-3.898,1.251-7.938,1.251-12.075 c0-4.142-0.434-8.182-1.253-12.085l10.478-9.305c1.727-1.535,2.138-4.071,0.983-6.072l-10.706-18.544 c-1.154-2.002-3.559-2.912-5.75-2.184l-13.338,4.434c-5.986-5.366-13.077-9.523-20.884-12.086l-2.821-13.73 c-0.465-2.263-2.458-3.887-4.769-3.887H47.586c-2.311,0-4.301,1.624-4.768,3.887l-2.82,13.733 c-2.882,0.947-5.659,2.123-8.326,3.484V51.667h256.655V206.752z"></path> <path d="M143.873,127.778c-1.292-0.43-2.708,0.109-3.389,1.288l-6.312,10.931c-0.679,1.178-0.438,2.674,0.579,3.578l6.177,5.486 c-0.482,2.297-0.737,4.677-0.737,7.116c0,2.441,0.256,4.823,0.739,7.123l-6.176,5.484c-1.018,0.904-1.26,2.4-0.58,3.579 l6.311,10.93c0.681,1.179,2.096,1.717,3.388,1.287l7.861-2.613c3.529,3.163,7.708,5.612,12.31,7.124l1.663,8.093 c0.275,1.332,1.449,2.289,2.811,2.289h12.62c1.362,0.001,2.535-0.957,2.81-2.289l1.663-8.095c4.602-1.512,8.78-3.963,12.309-7.126 l7.859,2.613c1.292,0.428,2.707-0.109,3.389-1.288l6.311-10.93c0.679-1.179,0.438-2.674-0.58-3.579l-6.177-5.486 c0.482-2.298,0.738-4.679,0.738-7.117c0-2.441-0.255-4.823-0.739-7.122l6.175-5.484c1.018-0.905,1.26-2.4,0.579-3.58l-6.31-10.929 c-0.681-1.181-2.098-1.717-3.389-1.287l-7.861,2.613c-3.529-3.163-7.709-5.612-12.311-7.123l-1.663-8.093 c-0.273-1.333-1.448-2.291-2.809-2.291h-12.621c-1.362,0-2.535,0.958-2.81,2.291l-1.663,8.095 c-4.602,1.511-8.781,3.963-12.309,7.126L143.873,127.778z M174.827,140.785c8.487,0,15.392,6.905,15.392,15.393 c0,8.488-6.905,15.394-15.392,15.394c-8.487,0-15.394-6.905-15.394-15.394C159.434,147.69,166.34,140.785,174.827,140.785z"></path> <path d="M104.688,91.938c-0.33,1.575-0.505,3.206-0.505,4.878c0,1.673,0.175,3.306,0.506,4.882l-4.232,3.758 c-0.697,0.621-0.863,1.645-0.396,2.453l4.326,7.492c0.466,0.808,1.437,1.177,2.322,0.882l5.388-1.792 c2.418,2.168,5.283,3.848,8.436,4.884l1.14,5.546c0.188,0.913,0.994,1.569,1.925,1.569h8.651c0.933,0.001,1.737-0.656,1.925-1.569 l1.141-5.548c3.152-1.035,6.017-2.716,8.436-4.884l5.387,1.792c0.885,0.294,1.856-0.075,2.322-0.883l4.326-7.491 c0.465-0.808,0.299-1.833-0.397-2.453l-4.233-3.76c0.33-1.574,0.505-3.206,0.505-4.878c0-1.674-0.175-3.306-0.506-4.882 l4.232-3.759c0.696-0.62,0.864-1.645,0.398-2.453l-4.326-7.491c-0.467-0.809-1.437-1.177-2.322-0.883l-5.388,1.791 c-2.419-2.168-5.283-3.847-8.437-4.883l-1.14-5.547c-0.188-0.914-0.993-1.57-1.925-1.57h-8.65c-0.934,0-1.738,0.656-1.926,1.57 l-1.14,5.549c-3.154,1.036-6.018,2.715-8.435,4.883l-5.388-1.792c-0.885-0.293-1.856,0.075-2.322,0.883l-4.325,7.491 c-0.467,0.808-0.3,1.833,0.396,2.452L104.688,91.938z M127.922,86.265c5.816,0,10.549,4.732,10.549,10.55 c0,5.818-4.732,10.549-10.549,10.549s-10.55-4.731-10.55-10.549C117.372,90.998,122.105,86.265,127.922,86.265z"></path> </g> </g></svg>